PathFileType	4	(X/Y/Z)	C:/Users/opensim2020/Desktop/walking_exp_matlab/subject06_walking17_straight_02.trc	
DataRate	CameraRate	NumFrames	NumMarkers	Units	OrigDataRate	OrigDataStartFrame	OrigNumFrames	
100.00	100.00	5	45	mm	100.00	2365	334	
Frame#	Time	LFHD			RFHD			LBHD			RBHD			C7			T10			CLAV			STRN			RBAK			LSHO			LUPA			LELB			LFRM			LWRA			LWRB			LFIN			RSHO			RUPA			RELB			RFRM			RWRA			RWRB			RFIN			LASI			RASI			LPSI			RPSI			LTHI			LKNE			LTIB			LANK			LHEE			LTOE			RTHI			RKNE			RTIB			RANK			RHEE			RTOE			*39			*40			*41			*42			*43			*44			
		X1	Y1	Z1	X2	Y2	Z2	X3	Y3	Z3	X4	Y4	Z4	X5	Y5	Z5	X6	Y6	Z6	X7	Y7	Z7	X8	Y8	Z8	X9	Y9	Z9	X10	Y10	Z10	X11	Y11	Z11	X12	Y12	Z12	X13	Y13	Z13	X14	Y14	Z14	X15	Y15	Z15	X16	Y16	Z16	X17	Y17	Z17	X18	Y18	Z18	X19	Y19	Z19	X20	Y20	Z20	X21	Y21	Z21	X22	Y22	Z22	X23	Y23	Z23	X24	Y24	Z24	X25	Y25	Z25	X26	Y26	Z26	X27	Y27	Z27	X28	Y28	Z28	X29	Y29	Z29	X30	Y30	Z30	X31	Y31	Z31	X32	Y32	Z32	X33	Y33	Z33	X34	Y34	Z34	X35	Y35	Z35	X36	Y36	Z36	X37	Y37	Z37	X38	Y38	Z38	X39	Y39	Z39	X40	Y40	Z40	X41	Y41	Z41	X42	Y42	Z42	X43	Y43	Z43	X44	Y44	Z44	X45	Y45	Z45	

209	2.080	1493.30530	-124.15105	1669.16089	1362.89783	-113.16095	1649.05908	1508.80933	7.05756	1611.66699	1380.55298	16.92810	1597.42163	1455.68579	8.46858	1452.14929	1452.54749	46.15540	1124.70642	1452.13330	-101.48875	1375.26941	1460.79126	-140.17186	1198.87268	1377.21948	81.20851	1282.59729	1614.56409	-54.38293	1405.85559	1683.82581	-75.43584	1203.30286	1691.99585	-87.08842	1089.94141	1690.70752	-172.12564	965.03375	1636.27441	-279.47699	908.54187	1655.75354	-227.77940	863.79755	1645.47778	-303.32816	815.19397	1291.35107	-57.18394	1405.72400	1207.69043	-12.46742	1206.13855	1198.10828	-14.85780	1084.35559	1180.78113	-18.67741	964.02118	1209.81274	-63.47748	818.29095	1170.27185	-8.77577	826.76648	1167.42395	-35.88431	746.27240	1556.26233	-128.54988	955.85577	1336.24426	-129.91992	971.77295	1527.41772	27.55584	989.37201	1359.93518	21.04907	999.15619	1605.40295	-28.70639	642.48804	1586.17529	-5.58486	479.26700	1586.87329	157.57474	278.74927	1548.18835	253.83434	133.68689	1505.35657	298.35498	141.55673	1536.77405	145.16888	39.80924	1273.40906	-109.80857	642.63171	1303.68494	-138.25459	522.63507	1307.29675	-124.48095	255.71027	1355.09924	-138.45981	71.24428	1404.90808	-105.39789	45.91649	1351.69934	-293.64221	41.15419	1440.49475	-18.00548	1700.70215															 
210	2.090	1491.64856	-130.85374	1669.86536	1361.20947	-120.00950	1649.90063	1506.91675	0.36793	1612.25696	1378.65369	10.00243	1598.10718	1453.48853	1.58620	1452.80933	1450.28979	39.16542	1125.36279	1450.18896	-108.37482	1375.99817	1458.90649	-147.16846	1199.57092	1374.47925	73.99168	1283.19849	1612.61487	-60.69473	1406.49194	1681.77905	-81.03858	1203.82751	1690.02979	-92.57243	1090.54529	1689.42346	-176.32198	964.78931	1634.83545	-282.68076	906.38330	1655.57043	-230.77731	862.47858	1645.39270	-305.73328	813.07391	1289.36731	-64.58800	1406.62012	1205.69946	-20.40745	1207.01794	1196.19434	-23.43274	1085.16650	1178.98645	-27.77330	964.82642	1208.57153	-72.74738	819.28656	1168.74744	-18.50065	827.40216	1166.16309	-46.09698	747.12500	1554.61853	-135.46803	956.81433	1334.67175	-137.01671	972.29504	1525.77222	20.84020	989.92633	1358.36218	14.11413	999.94299	1604.71436	-38.81866	642.55865	1586.23743	-18.78382	478.95126	1586.31372	148.25900	282.31055	1547.97131	247.85406	139.80450	1504.64294	291.35767	149.18164	1536.82947	144.45158	40.21317	1272.43555	-115.26455	643.04285	1302.38928	-142.18880	522.65137	1306.64783	-126.30545	255.58707	1355.11975	-138.88737	71.22729	1404.83789	-105.56161	46.01361	1351.65063	-293.96579	40.62609	1438.73657	-24.67529	1701.40051															 
211	2.100	1490.11780	-137.46965	1670.46021	1359.62622	-126.84341	1650.65442	1505.02393	-6.38444	1612.66248	1376.92896	3.22155	1598.73877	1451.36780	-5.16705	1453.39294	1448.11646	32.42968	1125.99438	1448.35645	-115.20508	1376.58350	1457.05469	-154.02988	1200.15930	1371.76184	66.85828	1283.83167	1610.69629	-66.90237	1407.06799	1679.91931	-86.23745	1204.24683	1688.17505	-97.74119	1091.00732	1688.46570	-180.44081	964.45563	1633.42566	-285.62024	904.11768	1655.41052	-233.47447	861.12982	1645.47766	-307.95682	810.91559	1287.47070	-71.97435	1407.45264	1203.52271	-28.26887	1207.72351	1194.14307	-31.96735	1085.85974	1177.15686	-37.09048	965.55249	1206.95752	-83.09094	820.43256	1167.16235	-28.35507	828.00500	1164.72327	-56.51498	747.92206	1553.01123	-142.05498	957.57574	1333.05420	-143.94897	972.80219	1524.18823	14.22984	990.36987	1356.77966	7.36461	1000.52814	1604.07458	-49.03776	642.53632	1586.26917	-32.34141	478.66235	1585.70239	138.28636	286.05725	1547.78723	241.19316	146.03403	1503.71985	283.49808	156.94511	1536.39807	142.55347	40.77423	1271.62109	-120.41055	643.57928	1301.07581	-146.07793	522.58081	1305.91382	-128.25731	255.48032	1355.10352	-139.19888	71.17974	1404.87109	-105.75849	46.08273	1351.58826	-294.37686	40.24490	1437.08582	-31.37483	1701.94678															 
212	2.110	1488.61206	-144.04594	1670.92126	1358.09705	-133.60313	1651.28027	1503.48071	-12.92368	1613.01367	1375.14270	-3.56927	1599.21167	1449.24561	-11.86755	1453.80676	1446.06335	25.77011	1126.54407	1446.60986	-121.94648	1377.07629	1455.22400	-160.66394	1200.63672	1369.08264	59.84117	1284.40515	1608.82837	-72.96426	1407.56421	1678.19507	-91.19070	1204.65088	1686.37012	-102.71809	1091.44202	1687.12024	-184.18599	963.89075	1632.03528	-288.34387	901.72070	1655.32532	-236.02130	859.85345	1645.73950	-309.83099	808.64825	1285.61194	-79.29985	1408.13977	1201.50757	-36.40358	1208.38599	1192.10974	-40.53355	1086.43030	1175.33997	-46.35955	966.12799	1205.67712	-92.61971	821.21100	1165.53040	-38.38743	828.51276	1163.47498	-67.00681	748.53101	1551.43042	-148.44783	958.24683	1331.48376	-150.67046	973.18750	1522.79956	7.76888	990.71686	1355.25464	0.74588	1001.22766	1603.46265	-59.37756	642.45892	1586.22107	-46.05028	478.36465	1584.95154	127.71053	289.89636	1547.46533	233.39526	152.18661	1502.75476	274.67462	164.63492	1536.45642	141.44109	40.90274	1270.52625	-125.59182	643.89899	1299.82312	-150.25957	522.51294	1305.14050	-130.16162	255.32391	1355.08264	-139.53442	71.14989	1404.80542	-105.81841	46.15335	1351.51392	-294.62042	39.85835	1435.54858	-37.97649	1702.40332															 
213	2.120	1487.19910	-150.65492	1671.30518	1356.62280	-140.23349	1651.83093	1501.77307	-19.51453	1613.28052	1373.52783	-10.27309	1599.63501	1447.24683	-18.57735	1454.27576	1444.17444	19.26083	1127.02661	1444.91125	-128.62680	1377.49805	1453.52905	-167.28716	1200.98706	1366.59692	53.00851	1284.95654	1606.98486	-78.95769	1407.98108	1676.49902	-96.05024	1205.00183	1684.56543	-107.43051	1091.76721	1686.11279	-187.70151	963.44427	1630.70410	-290.76144	899.18689	1655.75391	-238.34386	858.32654	1646.18018	-311.60040	806.37769	1283.82117	-86.58826	1408.72290	1199.29456	-44.32751	1208.87524	1190.12280	-49.15066	1086.96179	1173.47058	-55.68327	966.64069	1204.05115	-103.13495	822.20642	1163.81335	-48.55130	829.06287	1162.09778	-77.76080	749.10846	1549.98901	-155.01863	958.80548	1329.94995	-157.30762	973.53693	1521.32654	1.47142	990.99744	1353.91858	-5.84822	1001.87146	1602.83752	-69.82219	642.34918	1585.95996	-59.91715	478.20508	1583.89087	116.37433	293.67166	1547.24414	224.97461	158.31761	1501.87292	265.07358	172.16516	1536.24036	139.08543	42.42264	1269.21545	-130.75671	644.08728	1298.51978	-154.15648	522.31555	1304.37207	-132.08525	255.18599	1354.80786	-139.68484	71.13902	1405.04382	-106.12949	46.15155	1351.36523	-294.87219	39.51434	1434.03845	-44.54773	1702.77661															 
